<svg xmlns="http://www.w3.org/2000/svg" width="512" height="220" viewBox="0 0 512 220">
  <rect width="512" height="220" rx="28" fill="#ffffff"/>
  <g transform="translate(30 18)">
    <path d="M148 45c18-24 46-39 78-39 45 0 82 28 95 67 9-4 19-6 30-6 40 0 73 30 76 69 0 2 0 4 0 6 0 42-34 76-76 76H92C41 218 0 177 0 126c0-33 17-62 43-79-1-5-2-11-2-16 0-37 30-67 67-67 16 0 30 5 42 14z" fill="#1798d5"/>
    <text x="198" y="128" text-anchor="middle" font-family="Segoe UI, Arial, sans-serif" font-size="54" fill="#ffffff">salesforce</text>
  </g>
</svg>
