<svg xmlns="http://www.w3.org/2000/svg" width="720" height="360" viewBox="0 0 720 360">
  <rect width="720" height="360" rx="28" fill="#cfe8ff"/>
  <circle cx="360" cy="180" r="90" fill="#b2d7ff"/>
  <g transform="translate(115 90)">
    <ellipse cx="230" cy="120" rx="78" ry="90" fill="#8b5e34"/>
    <circle cx="185" cy="78" r="28" fill="#8b5e34"/>
    <circle cx="275" cy="78" r="28" fill="#8b5e34"/>
    <ellipse cx="230" cy="130" rx="52" ry="38" fill="#b98553"/>
    <circle cx="215" cy="120" r="4" fill="#1f2937"/>
    <circle cx="245" cy="120" r="4" fill="#1f2937"/>
    <path d="M216 141c10 10 28 10 38 0" fill="none" stroke="#1f2937" stroke-width="4" stroke-linecap="round"/>
    <path d="M195 185h70v55h-70z" fill="#f6e7c8"/>
    <path d="M230 20v52" stroke="#8b5e34" stroke-width="16" stroke-linecap="round"/>
    <path d="M230 18l24-18" stroke="#8b5e34" stroke-width="12" stroke-linecap="round"/>
  </g>
  <g transform="translate(30 150)">
    <circle cx="70" cy="44" r="28" fill="#f3f4f6"/>
    <path d="M32 112c4-38 24-58 38-58s34 20 38 58" fill="#d7dce2"/>
    <rect x="48" y="76" width="44" height="54" rx="10" fill="#ffffff"/>
  </g>
  <g transform="translate(540 150)">
    <ellipse cx="60" cy="58" rx="42" ry="52" fill="#f5f0e6"/>
    <circle cx="38" cy="22" r="12" fill="#f5f0e6"/>
    <circle cx="82" cy="22" r="12" fill="#f5f0e6"/>
    <rect x="34" y="92" width="52" height="42" rx="12" fill="#ffffff"/>
  </g>
  <g transform="translate(270 180)">
    <circle cx="78" cy="36" r="28" fill="#6b4f3a"/>
    <path d="M42 118c2-42 22-64 36-64h0c14 0 34 22 36 64" fill="#3b2f2f"/>
    <rect x="50" y="66" width="56" height="56" rx="14" fill="#1f2937"/>
    <text x="78" y="101" text-anchor="middle" font-family="Segoe UI, Arial, sans-serif" font-size="14" fill="#ffffff">AI</text>
  </g>
</svg>
